<svg width="20" height="20" viewBox="0 0 20 20" fill="none" xmlns="http://www.w3.org/2000/svg">
<path d="M12.5391 4.29462C12.5391 4.1319 12.3992 4 12.2266 4H0.3125C0.139911 4 0 4.1319 0 4.29462V15.3059C0 15.4687 0.139911 15.6006 0.3125 15.6006H2.07031C2.2429 15.6006 2.38083 15.468 2.40149 15.3065C2.55547 14.1028 3.64266 13.17 4.96094 13.17C6.27922 13.17 7.36641 14.1028 7.52038 15.3065C7.54105 15.468 7.67897 15.6006 7.85156 15.6006H12.2266C12.3992 15.6006 12.5391 15.4687 12.5391 15.3059V4.29462Z" fill="#8B8C91"/>
<path d="M17.5129 7.49043C17.4546 7.43663 17.3762 7.40652 17.2945 7.40652H14.0234C13.8508 7.40652 13.7109 7.53842 13.7109 7.70113V13.0193C13.7109 13.2532 13.9924 13.4003 14.2252 13.3194C14.5032 13.2228 14.8036 13.17 15.1172 13.17C16.4355 13.17 17.5227 14.1028 17.6766 15.3065C17.6973 15.468 17.8352 15.6006 18.0078 15.6006H19.6875C19.8601 15.6006 20 15.4687 20 15.3059V9.90589C20 9.82658 19.9661 9.75062 19.9059 9.69519L17.5129 7.49043Z" fill="#8B8C91"/>
<path d="M16.6016 15.6006C16.6016 16.3735 15.937 17 15.1172 17C14.2974 17 13.6328 16.3735 13.6328 15.6006C13.6328 14.8277 14.2974 14.2011 15.1172 14.2011C15.937 14.2011 16.6016 14.8277 16.6016 15.6006Z" fill="#8B8C91"/>
<path d="M6.48438 15.6006C6.48438 16.3735 5.8198 17 5 17C4.1802 17 3.51562 16.3735 3.51562 15.6006C3.51562 14.8277 4.1802 14.2011 5 14.2011C5.8198 14.2011 6.48438 14.8277 6.48438 15.6006Z" fill="#8B8C91"/>
</svg>
