<svg width="44" height="44" viewBox="0 0 44 44" fill="none" xmlns="http://www.w3.org/2000/svg">
<rect width="44" height="44" rx="12" fill="#FAFAFA"/>
<path d="M21.6686 30C21.1164 30 20.6686 29.5523 20.6686 29V15C20.6686 14.4477 21.1164 14 21.6686 14H22.3215C22.8738 14 23.3215 14.4477 23.3215 15V29C23.3215 29.5523 22.8738 30 22.3215 30H21.6686ZM15 23.3215C14.4477 23.3215 14 22.8738 14 22.3215V21.6686C14 21.1164 14.4477 20.6686 15 20.6686H29C29.5523 20.6686 30 21.1164 30 21.6686V22.3215C30 22.8738 29.5523 23.3215 29 23.3215H15Z" fill="#141516"/>
</svg>
