<svg width="24" height="25" viewBox="0 0 24 25" fill="none" xmlns="http://www.w3.org/2000/svg">
<g clip-path="url(#clip0_12701_27282)">
<path d="M16.735 3.3343C16.3945 2.99363 15.9426 2.78726 15.4622 2.75309C14.9818 2.71892 14.5052 2.85925 14.12 3.1483L11.207 5.3333C9.99689 6.24108 8.5775 6.82919 7.07999 7.0433L4.90299 7.3533C4.17299 7.4583 3.63799 8.2443 3.98999 9.0153C4.32099 9.7383 5.37499 11.6443 8.34999 14.7353L4.17199 18.9133C4.07648 19.0055 4.0003 19.1159 3.94789 19.2379C3.89548 19.3599 3.86789 19.4911 3.86674 19.6239C3.86558 19.7567 3.89088 19.8884 3.94117 20.0112C3.99145 20.1341 4.0657 20.2458 4.15959 20.3397C4.25349 20.4336 4.36514 20.5078 4.48803 20.5581C4.61093 20.6084 4.74261 20.6337 4.87539 20.6325C5.00817 20.6314 5.13939 20.6038 5.26139 20.5514C5.3834 20.499 5.49374 20.4228 5.58599 20.3273L9.76399 16.1493C12.855 19.1243 14.761 20.1783 15.484 20.5093C16.254 20.8613 17.041 20.3263 17.145 19.5963L17.456 17.4193C17.6701 15.9218 18.2582 14.5024 19.166 13.2923L21.35 10.3793C21.639 9.99406 21.7794 9.51747 21.7452 9.03707C21.711 8.55667 21.5046 8.10474 21.164 7.7643L16.734 3.3343H16.735Z" fill="#C3C5CA"/>
</g>
<defs>
<clipPath id="clip0_12701_27282">
<rect width="24" height="24" fill="white" transform="translate(0 0.5)"/>
</clipPath>
</defs>
</svg>
