<svg width="24" height="24" viewBox="0 0 24 24" fill="none" xmlns="http://www.w3.org/2000/svg">
<path d="M15.0469 3.95315C15.0469 3.7579 14.879 3.59961 14.6719 3.59961H0.375C0.167893 3.59961 0 3.7579 0 3.95315V17.1667C0 17.362 0.167893 17.5203 0.375 17.5203H2.48438C2.69148 17.5203 2.85699 17.3612 2.88179 17.1674C3.06656 15.7229 4.37119 14.6036 5.95312 14.6036C7.53506 14.6036 8.83969 15.7229 9.02446 17.1674C9.04926 17.3612 9.21477 17.5203 9.42188 17.5203H14.6719C14.879 17.5203 15.0469 17.362 15.0469 17.1667V3.95315Z" fill="#C3C5CA"/>
<path d="M21.0155 7.78812C20.9455 7.72357 20.8514 7.68743 20.7534 7.68743H16.8281C16.621 7.68743 16.4531 7.84571 16.4531 8.04097V14.4227C16.4531 14.7035 16.7909 14.88 17.0703 14.7829C17.4038 14.6669 17.7644 14.6036 18.1406 14.6036C19.7226 14.6036 21.0272 15.7229 21.212 17.1674C21.2368 17.3612 21.4023 17.5203 21.6094 17.5203H23.625C23.8321 17.5203 24 17.362 24 17.1667V10.6867C24 10.5915 23.9593 10.5004 23.8871 10.4338L21.0155 7.78812Z" fill="#C3C5CA"/>
<path d="M19.9219 17.5203C19.9219 18.4478 19.1244 19.1996 18.1406 19.1996C17.1569 19.1996 16.3594 18.4478 16.3594 17.5203C16.3594 16.5928 17.1569 15.841 18.1406 15.841C19.1244 15.841 19.9219 16.5928 19.9219 17.5203Z" fill="#C3C5CA"/>
<path d="M7.78125 17.5203C7.78125 18.4478 6.98376 19.1996 6 19.1996C5.01624 19.1996 4.21875 18.4478 4.21875 17.5203C4.21875 16.5928 5.01624 15.841 6 15.841C6.98376 15.841 7.78125 16.5928 7.78125 17.5203Z" fill="#C3C5CA"/>
</svg>
