<svg width="44" height="44" viewBox="0 0 44 44" fill="none" xmlns="http://www.w3.org/2000/svg">
<g opacity="0.2">
<path d="M23 19.7621L27.1649 18.1231L16.8524 14.0594L13.2966 15.46C13.1172 15.5304 12.9487 15.6252 12.7961 15.7418L23 19.7621ZM12.0481 16.908C12.0161 17.0517 11.9999 17.1984 12 17.3455V27.7024C11.9999 28.1085 12.1234 28.5054 12.3546 28.8417C12.5857 29.1781 12.9138 29.4384 13.2966 29.5893L21.2125 32.7088C21.57 32.8496 21.9385 32.9458 22.3125 32.9986V20.9513L12.0481 16.908ZM23.6875 33C24.0645 32.9466 24.4338 32.8493 24.7875 32.7101L32.7034 29.5906C33.0864 29.4397 33.4147 29.1791 33.6458 28.8425C33.877 28.5059 34.0003 28.1088 34 27.7024V17.3455C34 17.1965 33.9835 17.0489 33.9519 16.9067L23.6875 20.9513V33ZM33.2039 15.7431L29.0156 17.3943L18.7031 13.3307L21.2125 12.3392C22.36 11.8869 23.64 11.8869 24.7875 12.3392L32.7034 15.4587C32.8828 15.529 33.0513 15.6239 33.2039 15.7404V15.7431Z" fill="white"/>
</g>
<rect x="24" width="20" height="18" rx="9" fill="#C5115E"/>
<path d="M33.5589 14.1392C32.843 14.1392 32.2067 14.0166 31.6499 13.7713C31.0964 13.526 30.6589 13.1847 30.3374 12.7472C30.0159 12.3097 29.8452 11.8042 29.8253 11.2308H31.6946C31.7112 11.5059 31.8023 11.7462 31.968 11.9517C32.1338 12.1539 32.3542 12.3113 32.6293 12.424C32.9044 12.5367 33.2126 12.593 33.554 12.593C33.9186 12.593 34.2417 12.5301 34.5234 12.4041C34.8052 12.2749 35.0256 12.0959 35.1847 11.8672C35.3438 11.6385 35.4216 11.375 35.4183 11.0767C35.4216 10.7685 35.3421 10.4967 35.1797 10.2614C35.0173 10.026 34.782 9.84209 34.4737 9.70952C34.1688 9.57694 33.8009 9.51065 33.37 9.51065H32.4702V8.08878H33.37C33.7247 8.08878 34.0346 8.02746 34.2997 7.90483C34.5682 7.7822 34.7786 7.60985 34.9311 7.38778C35.0836 7.16241 35.1581 6.90223 35.1548 6.60724C35.1581 6.31889 35.0935 6.06866 34.9609 5.85653C34.8317 5.6411 34.6477 5.47372 34.4091 5.3544C34.1738 5.23508 33.897 5.17543 33.5788 5.17543C33.2673 5.17543 32.9789 5.23177 32.7138 5.34446C32.4486 5.45715 32.2348 5.6179 32.0724 5.8267C31.91 6.0322 31.8239 6.27746 31.8139 6.5625H30.0391C30.0523 5.99242 30.2164 5.49195 30.5312 5.06108C30.8494 4.62689 31.2737 4.28883 31.804 4.04688C32.3343 3.80161 32.9292 3.67898 33.5888 3.67898C34.2682 3.67898 34.8582 3.80658 35.3587 4.06179C35.8625 4.31368 36.2519 4.65341 36.527 5.08097C36.8021 5.50852 36.9396 5.98082 36.9396 6.49787C36.9429 7.07126 36.7739 7.55185 36.4325 7.93963C36.0945 8.32741 35.6503 8.58097 35.1001 8.70028V8.77983C35.8161 8.87926 36.3646 9.14441 36.7457 9.57528C37.1302 10.0028 37.3208 10.5348 37.3175 11.1712C37.3175 11.7412 37.1551 12.2517 36.8303 12.7024C36.5088 13.1499 36.0646 13.5012 35.4979 13.7564C34.9344 14.0116 34.2881 14.1392 33.5589 14.1392Z" fill="white"/>
</svg>
