<svg width="44" height="44" viewBox="0 0 44 44" fill="none" xmlns="http://www.w3.org/2000/svg">
<g clip-path="url(#clip0_13542_15307)">
<g opacity="0.2">
<path fill-rule="evenodd" clip-rule="evenodd" d="M33 22C33 28.0751 28.0751 33 22 33C15.9249 33 11 28.0751 11 22C11 15.9249 15.9249 11 22 11C28.0751 11 33 15.9249 33 22ZM22.6287 17.8213C22.6287 17.1818 22.1103 16.6634 21.4708 16.6634C20.8313 16.6634 20.3129 17.1818 20.3129 17.8213V22.4778C20.3129 22.7685 20.3872 23.0511 20.5248 23.3004C20.7236 23.6608 21.0429 23.8703 21.1254 23.9244L21.1391 23.9334L23.8509 25.7754C24.3799 26.1347 25.1 25.9972 25.4593 25.4682C25.8187 24.9392 25.6811 24.2191 25.1521 23.8597L22.6287 22.1457V17.8213Z" fill="white"/>
</g>
</g>
<defs>
<clipPath id="clip0_13542_15307">
<rect width="44" height="44" rx="12" fill="white"/>
</clipPath>
</defs>
</svg>
