<svg width="15" height="16" viewBox="0 0 15 16" fill="none" xmlns="http://www.w3.org/2000/svg">
<path d="M0 4.01166V11.5909C0 11.8141 0.126131 12.0182 0.325807 12.1181L7.16531 15.5378C7.32979 15.62 7.52323 15.6208 7.68835 15.5398L14.6701 12.1169C14.872 12.0179 15 11.8126 15 11.5877V4.00975C15 3.78617 14.8735 3.58184 14.6734 3.48217L7.80541 0.0618064C7.64081 -0.0201692 7.44738 -0.0206222 7.28239 0.060581L4.97402 1.19672L11.9646 4.82361V8.83142L10.2259 9.74497V5.76663L3.14791 2.09549L0.329117 3.48286C0.127624 3.58203 0 3.78709 0 4.01166Z" fill="#141516"/>
</svg>
