<svg width="44" height="44" viewBox="0 0 44 44" fill="none" xmlns="http://www.w3.org/2000/svg">
<g opacity="0.2">
<path d="M23 36C24.8921 36 26.427 34.4332 26.427 32.5H19.573C19.573 34.4332 21.1079 36 23 36ZM34.5387 27.8127C33.5037 26.6774 31.5671 24.9695 31.5671 19.375C31.5671 15.1258 28.6486 11.7242 24.7132 10.8897V9.75C24.7132 8.78367 23.9461 8 23 8C22.0539 8 21.2868 8.78367 21.2868 9.75V10.8897C17.3514 11.7242 14.4329 15.1258 14.4329 19.375C14.4329 24.9695 12.4963 26.6774 11.4613 27.8127C11.1399 28.1655 10.9974 28.5871 11 29C11.0059 29.8969 11.6954 30.75 12.7197 30.75H33.2803C34.3046 30.75 34.9946 29.8969 35 29C35.0026 28.5871 34.8601 28.1649 34.5387 27.8127Z" fill="white"/>
</g>
<rect x="18" width="26" height="18" rx="9" fill="#C5115E"/>
<path d="M28.0462 3.81818V14H26.2017V5.61293H26.142L23.7607 7.13423V5.44389L26.2912 3.81818H28.0462ZM30.6314 14V12.6676L34.1662 9.20241C34.5043 8.86103 34.786 8.55776 35.0114 8.29261C35.2367 8.02746 35.4058 7.7706 35.5185 7.52202C35.6312 7.27344 35.6875 7.00829 35.6875 6.72656C35.6875 6.40507 35.6146 6.12997 35.4688 5.90128C35.3229 5.66927 35.1224 5.49029 34.8672 5.36435C34.612 5.2384 34.322 5.17543 33.9972 5.17543C33.6624 5.17543 33.3691 5.24503 33.1172 5.38423C32.8653 5.52012 32.6697 5.71401 32.5305 5.96591C32.3946 6.2178 32.3267 6.51776 32.3267 6.86577H30.5717C30.5717 6.21946 30.7192 5.65767 31.0142 5.1804C31.3092 4.70312 31.7152 4.33357 32.2322 4.07173C32.7526 3.8099 33.3492 3.67898 34.022 3.67898C34.7048 3.67898 35.3047 3.80658 35.8217 4.06179C36.3388 4.317 36.7398 4.66667 37.0249 5.1108C37.3132 5.55492 37.4574 6.06203 37.4574 6.6321C37.4574 7.01326 37.3845 7.38778 37.2386 7.75568C37.0928 8.12358 36.8359 8.53125 36.468 8.97869C36.1035 9.42614 35.5914 9.96804 34.9318 10.6044L33.1768 12.3892V12.4588H37.6115V14H30.6314Z" fill="white"/>
</svg>
