<svg width="44" height="44" viewBox="0 0 44 44" fill="none" xmlns="http://www.w3.org/2000/svg">
<g clip-path="url(#clip0_13542_15298)">
<g opacity="0.2">
<path d="M33 32L26.8235 25.8235M12 19.6471C12 20.7826 12.2237 21.907 12.6582 22.9561C13.0928 24.0053 13.7297 24.9585 14.5327 25.7615C15.3356 26.5644 16.2889 27.2013 17.338 27.6359C18.3871 28.0705 19.5115 28.2941 20.6471 28.2941C21.7826 28.2941 22.907 28.0705 23.9561 27.6359C25.0053 27.2013 25.9585 26.5644 26.7615 25.7615C27.5644 24.9585 28.2013 24.0053 28.6359 22.9561C29.0705 21.907 29.2941 20.7826 29.2941 19.6471C29.2941 18.5115 29.0705 17.3871 28.6359 16.338C28.2013 15.2889 27.5644 14.3356 26.7615 13.5327C25.9585 12.7297 25.0053 12.0928 23.9561 11.6582C22.907 11.2237 21.7826 11 20.6471 11C19.5115 11 18.3871 11.2237 17.338 11.6582C16.2889 12.0928 15.3356 12.7297 14.5327 13.5327C13.7297 14.3356 13.0928 15.2889 12.6582 16.338C12.2237 17.3871 12 18.5115 12 19.6471Z" stroke="white" stroke-width="2.8" stroke-linecap="round" stroke-linejoin="round"/>
</g>
</g>
<defs>
<clipPath id="clip0_13542_15298">
<rect width="44" height="44" rx="12" fill="white"/>
</clipPath>
</defs>
</svg>
