<svg width="20" height="18" viewBox="0 0 20 18" fill="none" xmlns="http://www.w3.org/2000/svg">
<path d="M10.0004 0.599609C11.0188 0.599609 11.9955 0.992941 12.7157 1.69308C13.4358 2.39321 13.8404 3.3428 13.8404 4.33294C13.8404 5.01428 13.658 5.64894 13.322 6.19961H15.7604C16.6724 6.19961 17.4404 6.82494 17.6324 7.65561C19.562 15.1316 19.6004 15.3276 19.6004 15.5329C19.6004 16.028 19.3981 16.5028 19.038 16.8529C18.678 17.2029 18.1896 17.3996 17.6804 17.3996H2.32039C1.81117 17.3996 1.32282 17.2029 0.962746 16.8529C0.602676 16.5028 0.400391 16.028 0.400391 15.5329C0.400391 15.3276 0.438791 15.1316 2.36839 7.65561C2.56039 6.82494 3.32839 6.19961 4.24039 6.19961H6.67879C6.33562 5.63438 6.15647 4.98928 6.16039 4.33294C6.16039 3.3428 6.56496 2.39321 7.2851 1.69308C8.00524 0.992941 8.98196 0.599609 10.0004 0.599609ZM10.0004 2.46628C9.49118 2.46628 9.00282 2.66294 8.64275 3.01301C8.28268 3.36308 8.08039 3.83787 8.08039 4.33294C8.08039 4.82801 8.28268 5.30281 8.64275 5.65287C9.00282 6.00294 9.49118 6.19961 10.0004 6.19961C10.5096 6.19961 10.998 6.00294 11.358 5.65287C11.7181 5.30281 11.9204 4.82801 11.9204 4.33294C11.9204 3.83787 11.7181 3.36308 11.358 3.01301C10.998 2.66294 10.5096 2.46628 10.0004 2.46628Z" fill="#C3C5CA"/>
</svg>
